<?xml version="1.0" standalone="no"?><!DOCTYPE svg PUBLIC "-//W3C//DTD SVG 1.1//EN" "http://www.w3.org/Graphics/SVG/1.1/DTD/svg11.dtd"><svg t="1608692622858" class="icon" viewBox="0 0 1024 1024" version="1.1" xmlns="http://www.w3.org/2000/svg" p-id="4584" xmlns:xlink="http://www.w3.org/1999/xlink" width="250" height="250"><defs><style type="text/css"></style></defs><path d="M630.373923 18.954133c-31.113388 20.861467-99.658207 113.844005-172.136903 233.410011-8.583003 14.185797-8.583003 14.662631-0.715251 14.662631 18.358091 0.119208 44.464726 14.781839 56.981607 31.947847 2.861001 4.053085 5.483586 7.271711 5.841211 7.271711 0.357625 0.119208 5.602794-8.82142 11.563213-19.9078 75.578114-138.758556 119.804424-245.33085 111.93667-269.410943-1.311292-3.933877-5.364377-3.337835-13.470547 2.026543zM438.925262 308.749709c-12.278463 3.099418-23.841676 13.23213-28.371595 24.676135-3.933877 10.251921-3.69546 22.530384 0.596042 31.947846 3.933877 8.583003 11.08638 16.331548 19.192549 20.62305 5.364377 2.861001 7.152503 3.218626 18.4773 3.218627 14.424214 0 19.311758-1.788126 28.371595-10.609546 21.457509-20.503842 15.139464-55.431898-12.278464-67.591153-6.198836-2.741793-19.430966-3.933877-25.987427-2.264959zM324.842841 309.584168c-104.307334 4.291502-162.600233 9.655879-211.118045 19.430966-27.417928 5.483586-47.087311 12.51688-49.948312 17.881257-2.622584 4.887544 6.675669 10.967171 24.676135 16.093132 34.808847 10.132712 95.485914 18.000466 173.805821 22.530384 34.928056 2.145751 112.532712 4.768335 113.367171 3.933876 0.238417-0.238417-0.596042-3.099418-2.026542-6.318044-9.417462-21.219092-9.298254-49.948312 0-68.306403 1.430501-2.622584 2.503376-5.12596 2.503376-5.483585 0-0.596042-35.404889-0.476834-51.259604 0.238417zM516.41071 396.36787c-5.841211 9.179045-19.073341 20.384633-31.113388 26.225844-10.013504 4.887544-24.556927 8.940629-32.305471 8.940628-2.861001 0-2.384168 0.834459 8.463795 18.715716 64.372526 105.261001 118.373923 180.600698 154.494063 215.647963 16.331548 15.854715 25.868219 20.861467 27.894761 14.543423 6.556461-20.62305-26.583469-106.453085-82.253783-213.144587-20.265425-38.981141-40.411641-76.293364-41.2461-76.293365-0.357625 0-2.145751 2.384168-3.933877 5.364378zM15.258673 413.057043c-2.145751 5.722002 6.198836 33.85518 18.834924 62.942026 10.132712 23.60326 47.206519 97.393248 51.855646 103.11525 0.119208 0.238417 3.457043-2.741793 7.271712-6.556461 7.986962-7.986962 17.046799-12.874505 27.537136-15.020256l7.510128-1.549709L111.459837 529.404424C62.226775 450.965308 20.265425 400.301746 15.258673 413.057043zM662.798603 414.01071c-2.622584 10.251921 14.781839 56.504773 40.650058 108.479628 10.132712 20.146217 28.967637 55.431898 30.159721 56.147147 0.476834 0.357625 3.69546-2.384168 7.271711-5.960419 7.510128-7.510128 20.027008-14.305006 28.72922-15.497089 3.218626-0.476834 5.841211-1.072875 5.841211-1.311292 0-2.384168-43.749476-69.26007-59.961816-91.552038-22.888009-31.471013-43.153434-53.04773-49.829104-53.04773-1.311292 0-2.503376 1.072875-2.861001 2.741793zM407.096624 725.979045v283.715949h83.445867V573.034692l-15.377881-23.364843c-15.735506-23.960885-44.703143-70.094529-59.008149-94.055414-4.41071-7.271711-8.225378-13.351339-8.583003-13.351338-0.238417 0-0.476834 127.672177-0.476834 283.715948zM124.334342 584.240279c-5.722002 1.668917-13.470547 8.463795-16.569965 14.543423-5.245169 10.132712-2.264959 25.272177 6.437253 32.543888 5.483586 4.649127 10.609546 6.437253 18.358091 6.437253 12.636088 0 22.411176-7.510128 26.106635-19.9078 5.841211-20.027008-13.828172-39.338766-34.332014-33.616764zM773.662398 584.001863c-17.762049 4.41071-26.106636 23.245634-17.523632 39.577182 8.702212 16.808382 31.590221 19.311758 44.583935 4.887544 7.39092-8.225378 8.940629-19.192549 4.053085-29.563679-3.337835-7.033295-8.940629-11.920838-16.92759-14.305005-6.079627-1.788126-8.583003-1.907334-14.185798-0.596042zM181.792782 586.743655c0 0.238417 1.192084 3.337835 2.622585 6.914087 3.576251 9.059837 3.576251 25.272177 0 34.57043-1.430501 3.576251-2.622584 6.675669-2.622585 6.67567 0 0.834459 75.816531-3.099418 96.320373-4.887544 46.014435-4.053085 80.823283-11.563213 83.326659-18.000466 3.933877-10.371129-55.312689-20.265425-145.672643-24.31851-27.417928-1.192084-33.974389-1.430501-33.974389-0.953667zM830.644005 588.412573c5.722002 18.358091 5.722002 26.702678 0.238416 43.987893-0.71525 2.264959-0.238417 2.384168 11.563213 2.145751 82.730617-2.026542 151.990687-10.728754 166.057276-21.099884 12.278463-8.940629-44.107101-20.503842-120.400465-24.437718-56.147148-2.98021-58.292899-2.98021-57.45844-0.596042zM84.876368 644.082887c-4.291502 6.556461-31.947846 60.319441-40.769267 79.392782C21.695925 771.516647 10.251921 807.755995 16.569965 810.140163c7.629336 2.98021 37.193015-30.874971 71.048196-81.180908 4.887544-7.271711 15.973923-24.31851 24.676135-38.027474l15.735506-25.03376-8.344587-2.145751c-12.874505-3.218626-20.742258-8.10617-29.325262-17.881257l-3.695459-4.41071-1.788126 2.622584zM724.310128 658.983935c-13.23213 24.676135-31.232596 61.034692-40.292433 81.180908-17.523632 39.696391-25.868219 70.452154-18.954133 70.452154 3.457043 0 13.708964-8.463795 23.126426-19.19255 19.669383-22.172759 46.014435-59.127357 73.074738-102.519208l14.185798-22.88801-8.583004-2.264959c-10.609546-2.622584-19.550175-7.986962-27.298719-16.093131l-5.722002-6.079628-9.536671 17.404424zM157.474272 670.189523c-0.834459 1.549709-6.914086 11.324796-13.351338 21.815134-6.318044 10.490338-18.000466 28.72922-25.749011 40.650058L104.307334 754.231432V1009.694994h54.835856v-45.060768c0-24.676135 0.357625-101.68475 0.834458-171.064028 0.357625-69.26007 0.357625-126.00326 0-126.00326-0.476834 0-1.549709 1.192084-2.503376 2.622585zM802.98766 674.361816c-7.629336 12.755297-32.543888 52.094063-41.365308 65.206985l-8.821421 12.874505V1009.694994h54.835856V838.630966c0-94.055413-0.119208-171.064028-0.357625-171.064028-0.119208 0-2.145751 3.099418-4.291502 6.794878z" p-id="4585" fill="#ffffff"></path></svg>