<svg xmlns="http://www.w3.org/2000/svg" width="21.598" height="21.598" viewBox="0 0 21.598 21.598">
  <g id="组_3856" data-name="组 3856" transform="translate(-6376 572)">
    <g id="组_3854" data-name="组 3854" transform="translate(6377.003 -571.013)">
      <path id="路径_8257" data-name="路径 8257" d="M549.88,140.694a10.174,10.174,0,1,1,10.174,10.174,10.174,10.174,0,0,1-10.174-10.174Zm1.2,0a8.976,8.976,0,1,0,8.979-8.974,8.976,8.976,0,0,0-8.979,8.974Zm11.593,3.227a.581.581,0,0,1-.416-.173l-2.616-2.616a.6.6,0,0,1-.179-.424v-5.619a.6.6,0,0,1,1.2,0v5.369l2.443,2.436a.6.6,0,0,1-.424,1.017Zm0,0" transform="translate(-549.883 -130.507)" fill="#06bbdf" stroke="#06bbdf" stroke-width="0.5"/>
    </g>
    <g id="矩形_6755" data-name="矩形 6755" transform="translate(6376 -572)" fill="none" stroke="#707070" stroke-width="1" opacity="0">
      <rect width="21" height="21" stroke="none"/>
      <rect x="0.5" y="0.5" width="20" height="20" fill="none"/>
    </g>
  </g>
</svg>
