<svg xmlns="http://www.w3.org/2000/svg" width="19" height="20.883" viewBox="0 0 19 20.883">
  <g id="组_4490" data-name="组 4490" transform="translate(-3773 97.75)">
    <path id="路径_8520" data-name="路径 8520" d="M31.559-137.582l.5-.5.109.109a.394.394,0,0,0,.291.121.376.376,0,0,0,.291-.121.433.433,0,0,0,0-.594l-.813-.813a.433.433,0,0,0-.595,0,.418.418,0,0,0,0,.582l.109.109-.5.5a8.262,8.262,0,0,0-5.193-2.148v-1.674a.409.409,0,0,0-.412-.413.409.409,0,0,0-.413.413v1.686A8.365,8.365,0,0,0,17-131.977a8.368,8.368,0,0,0,8.359,8.359,8.368,8.368,0,0,0,8.359-8.359,8.28,8.28,0,0,0-2.16-5.605Zm-6.188,13.128a7.529,7.529,0,0,1-7.522-7.522,7.529,7.529,0,0,1,7.522-7.522,7.529,7.529,0,0,1,7.522,7.522,7.529,7.529,0,0,1-7.522,7.522Zm-2.123-17.8a.409.409,0,0,0,.412-.412v-.5H27.07v.5a.409.409,0,0,0,.412.412.409.409,0,0,0,.412-.412v-.922a.409.409,0,0,0-.412-.412H23.236a.409.409,0,0,0-.412.412v.922a.427.427,0,0,0,.425.412Zm5.241,7.207-3.409,3.409a.418.418,0,0,0,0,.582.394.394,0,0,0,.291.121.376.376,0,0,0,.291-.121l3.409-3.409a.418.418,0,0,0,0-.582.4.4,0,0,0-.582,0Zm0,0" transform="translate(3757.5 46.5)" fill="#06bbdf" stroke="#06bbdf" stroke-width="0.5"/>
    <g id="矩形_6887" data-name="矩形 6887" transform="translate(3773 -97)" fill="none" stroke="#707070" stroke-width="1" opacity="0">
      <rect width="19" height="19" stroke="none"/>
      <rect x="0.5" y="0.5" width="18" height="18" fill="none"/>
    </g>
  </g>
</svg>
