<svg xmlns="http://www.w3.org/2000/svg" width="19.075" height="19" viewBox="0 0 19.075 19">
  <g id="组_4487" data-name="组 4487" transform="translate(-942.946 -115)">
    <g id="组_4356" data-name="组 4356" transform="translate(1077 325)">
      <g id="组_4355" data-name="组 4355" transform="translate(-134 -209)">
        <path id="路径_8353" data-name="路径 8353" d="M-130.519-198.37l-.146.438H-127l.175-4.49a.384.384,0,0,1,.371-.389h.186a.384.384,0,0,1,.371.389l.174,4.49h3.034l.1-2.716a.242.242,0,0,1,.232-.249h.116a.237.237,0,0,1,.17.074.248.248,0,0,1,.068.175l.1,2.716h.3a.536.536,0,0,1,.535.548.536.536,0,0,1-.535.548h-9.437l-.193.579h3.877a.613.613,0,0,1,.45.2.644.644,0,0,1,.168.472s-.179,3.246-.179,3.243h1.874v-1.818a.643.643,0,0,1,.182-.449.612.612,0,0,1,.438-.186h7.17l-.31-1.016h-3.265a.617.617,0,0,1-.54-.316.648.648,0,0,1,0-.637.617.617,0,0,1,.54-.316h2.878l-.4-1.288h-3.315l-.05-1.294h3.821a.621.621,0,0,1,.592.446l2.232,7.324a.648.648,0,0,1-.092.566.615.615,0,0,1-.5.259h-17.728a.615.615,0,0,1-.5-.265.648.648,0,0,1-.083-.574l2.417-7.324a.621.621,0,0,1,.587-.431h3.709c-.019.484-.037.93-.051,1.294Zm3.4-4.9a1.118,1.118,0,0,1-.389-.713.122.122,0,0,0-.058-.083.086.086,0,0,0-.1.005q-1.039.628-2.025,1.339c-.575.442-.958.707-1,.967a.173.173,0,0,0,.023.083.2.2,0,0,0,.174.082,13.54,13.54,0,0,0,3.354-1.5.1.1,0,0,0,.053-.083.115.115,0,0,0-.035-.094Zm.743-2.034a1.147,1.147,0,0,1,.4.076.082.082,0,0,0,.041.006.1.1,0,0,0,.058-.018.1.1,0,0,0,.046-.088q-.012-1.223-.145-2.441a7.017,7.017,0,0,0-.139-.837c-.07-.2-.063-.354-.261-.4-.2.042-.2.195-.261.4a18.946,18.946,0,0,0-.284,3.278.12.12,0,0,0,.046.088.1.1,0,0,0,.1.012,1.152,1.152,0,0,1,.4-.076Zm.755,1.156a.8.8,0,0,0-.755-.8.8.8,0,0,0-.755.8.8.8,0,0,0,.755.8.8.8,0,0,0,.755-.8Zm-.018,1.09a26.007,26.007,0,0,0,2.857,1.425.5.5,0,0,0,.485.392.5.5,0,0,0,.431-.255.52.52,0,0,0,0-.509.5.5,0,0,0-.431-.255.487.487,0,0,0-.209.047c-.154-.126-.338-.268-.545-.433-.58-.436-1.335-.943-2.036-1.373a.116.116,0,0,0-.1-.006.1.1,0,0,0-.058.082,1.152,1.152,0,0,1-.406.7.119.119,0,0,0-.04.094.109.109,0,0,0,.052.088Zm3.087.621a.722.722,0,0,1,.51,0,.032.032,0,0,0,.023.006.1.1,0,0,0,.04-.012.073.073,0,0,0,.029-.059,15.089,15.089,0,0,0-.093-1.552,3.875,3.875,0,0,0-.087-.533c-.04-.125-.04-.225-.167-.249-.122.029-.122.124-.168.249a12.054,12.054,0,0,0-.179,2.079.079.079,0,0,0,.029.066.061.061,0,0,0,.064.005Zm1.059.771a.078.078,0,0,0-.063-.006.068.068,0,0,0-.035.054.719.719,0,0,1-.255.444.057.057,0,0,0-.023.059.058.058,0,0,0,.035.054,9.4,9.4,0,0,0,2.154,1,.115.115,0,0,0,.1-.047.088.088,0,0,0,.012-.053c-.023-.16-.273-.344-.643-.634q-.621-.466-1.285-.87Zm-1.279.474a.735.735,0,0,1-.243-.45.07.07,0,0,0-.035-.054.062.062,0,0,0-.064,0c-.446.273-.915.587-1.274.847-.359.278-.6.45-.631.616a.1.1,0,0,0,.012.053.132.132,0,0,0,.11.054,8.508,8.508,0,0,0,2.114-.954.087.087,0,0,0,.035-.053.07.07,0,0,0-.023-.059Zm-1.07,8.85h7.344l-.361-1.206h-6.983Zm-4.163-2.74h-3.64l-.873,2.74h4.368l.146-2.74Zm2.612-3.288-.053-1.315h2.567l-.08,1.3Zm0,0" transform="translate(134 209)" fill="#06bbdf" stroke="#06bbdf" stroke-width="0.1"/>
      </g>
    </g>
    <g id="矩形_6886" data-name="矩形 6886" transform="translate(943 115)" fill="none" stroke="#707070" stroke-width="1" opacity="0">
      <rect width="19" height="19" stroke="none"/>
      <rect x="0.5" y="0.5" width="18" height="18" fill="none"/>
    </g>
  </g>
</svg>
