<svg xmlns="http://www.w3.org/2000/svg" width="19.212" height="19" viewBox="0 0 19.212 19">
  <g id="组_4484" data-name="组 4484" transform="translate(-1082.896 -103)">
    <g id="组_4358" data-name="组 4358" transform="translate(1173 200)">
      <g id="组_4357" data-name="组 4357" transform="translate(-90 -94)">
        <path id="路径_8354" data-name="路径 8354" d="M10.045,81.713h2.1a.418.418,0,0,0,0-.835h-2.1a.418.418,0,1,0,0,.835Zm3.368,0h2.1a.418.418,0,1,0,0-.835h-2.1a.418.418,0,1,0,0,.835Zm3.368,0h2.1a.418.418,0,1,0,0-.835h-2.1a.418.418,0,0,0,0,.835Zm-5.062,2.006A.418.418,0,0,0,11.3,83.3H9.2a.418.418,0,1,0,0,.835h2.1a.418.418,0,0,0,.418-.418Zm.432,0a.418.418,0,0,0,.418.418h2.1a.418.418,0,0,0,0-.835h-2.1a.417.417,0,0,0-.417.418Zm3.368,0a.418.418,0,0,0,.418.418h2.1a.418.418,0,0,0,0-.835h-2.1a.418.418,0,0,0-.418.418Zm-5.062,2.006h-2.1a.418.418,0,0,0,0,.835h2.1a.418.418,0,1,0,0-.835Zm3.368,0h-2.1a.418.418,0,0,0,0,.835h2.1a.418.418,0,0,0,0-.835Zm3.368,0h-2.1a.418.418,0,0,0,0,.835h2.1a.418.418,0,0,0,0-.835Zm0,0" transform="translate(-5.551 -76.616)" fill="#06bbdf" stroke="#06bbdf" stroke-width="0.2"/>
        <path id="路径_8355" data-name="路径 8355" d="M-74.012-14.194a.78.78,0,0,0-.649-.318H-85.892a1.223,1.223,0,0,0-1.1.8l-2.955,8.477a.825.825,0,0,0,.085.759.78.78,0,0,0,.649.318H-83.4s0,.009,0,.013v1.2h-3.227a.417.417,0,0,0-.3.122.417.417,0,0,0-.122.3.417.417,0,0,0,.417.417h7.29a.418.418,0,0,0,.418-.417.418.418,0,0,0-.418-.418h-3.227v-1.2s0-.009,0-.013h4.585a1.223,1.223,0,0,0,1.1-.8l2.955-8.477a.825.825,0,0,0-.085-.759ZM-77.67-5.232a.4.4,0,0,1-.31.242H-89.146l2.944-8.445a.4.4,0,0,1,.31-.242h11.165Zm0,0" transform="translate(90 16.449)" fill="#06bbdf" stroke="#06bbdf" stroke-width="0.2"/>
        <path id="路径_8356" data-name="路径 8356" d="M163.488-93.682a.78.78,0,0,0-.649-.318H151.608a1.223,1.223,0,0,0-1.1.8.417.417,0,0,0,.078.41.418.418,0,0,0,.394.137.418.418,0,0,0,.316-.273.4.4,0,0,1,.31-.242h11.165L159.83-84.72a.4.4,0,0,1-.31.242.418.418,0,0,0-.411.418.418.418,0,0,0,.411.418,1.223,1.223,0,0,0,1.1-.8l2.955-8.478a.826.826,0,0,0-.085-.759Zm0,0" transform="translate(-144.625 94)" fill="#06bbdf" stroke="#06bbdf" stroke-width="0.2"/>
      </g>
    </g>
    <g id="矩形_6887" data-name="矩形 6887" transform="translate(1083 103)" fill="none" stroke="#707070" stroke-width="1" opacity="0">
      <rect width="19" height="19" stroke="none"/>
      <rect x="0.5" y="0.5" width="18" height="18" fill="none"/>
    </g>
  </g>
</svg>
