<svg xmlns="http://www.w3.org/2000/svg" width="21.131" height="14.797" viewBox="0 0 21.131 14.797">
  <g id="组_4346" data-name="组 4346" transform="translate(-18.951 -4.265)">
    <g id="组_4345" data-name="组 4345" transform="translate(20 5)">
      <g id="组_4347" data-name="组 4347" transform="translate(0 0)">
        <path id="路径_8349" data-name="路径 8349" d="M30.568,4.975a10.568,10.568,0,0,0-9.685,14.8h1.561a9.161,9.161,0,1,1,16.244,0h1.561a10.568,10.568,0,0,0-9.682-14.8Zm0,0" transform="translate(-21.049 -5.71)" fill="#06bbdf"/>
        <path id="路径_8350" data-name="路径 8350" d="M176.122,135.331a.642.642,0,0,0-.869.232l-4.442,7.629a.627.627,0,0,0,.232.859.641.641,0,0,0,.869-.232l4.442-7.626a.635.635,0,0,0,.063-.478.628.628,0,0,0-.3-.385Zm-3.49,1.821a1.9,1.9,0,1,0-1.9,1.907,1.906,1.906,0,0,0,1.9-1.907Zm-1.9.637a.635.635,0,1,1,.637-.634.632.632,0,0,1-.637.634Zm5.712,2.538a1.9,1.9,0,1,0,1.9,1.9,1.906,1.906,0,0,0-1.9-1.9Zm0,2.538a.635.635,0,1,1,.637-.634.632.632,0,0,1-.637.634Zm0,0" transform="translate(-163.751 -130.807)" fill="#06bbdf"/>
      </g>
    </g>
  </g>
</svg>
