<svg xmlns="http://www.w3.org/2000/svg" width="19.25" height="19.25" viewBox="0 0 19.25 19.25">
  <g id="组_4486" data-name="组 4486" transform="translate(-1373.75 -90.75)">
    <g id="组_4363" data-name="组 4363" transform="translate(1452 262)">
      <path id="路径_8357" data-name="路径 8357" d="M-68.9-152.774a9.118,9.118,0,0,1-9.1-9.113A9.118,9.118,0,0,1-68.9-171a9.118,9.118,0,0,1,9.1,9.113.314.314,0,0,1-.314.314.314.314,0,0,1-.314-.314,8.489,8.489,0,0,0-8.475-8.484,8.489,8.489,0,0,0-8.475,8.484A8.489,8.489,0,0,0-68.9-153.4a.314.314,0,0,1,.314.314.314.314,0,0,1-.314.314Zm0,0" fill="#06bbdf" stroke="#06bbdf" stroke-width="0.5"/>
      <path id="路径_8358" data-name="路径 8358" d="M116.684-49.673a.346.346,0,0,1-.261-.116.288.288,0,0,1-.065-.259l1.2-4.839h-3.21a.339.339,0,0,1-.3-.168.286.286,0,0,1,.028-.319l5.344-6.748a.352.352,0,0,1,.409-.1.3.3,0,0,1,.187.349l-1.2,4.839h3.21a.338.338,0,0,1,.3.168.286.286,0,0,1-.028.319L116.954-49.8a.344.344,0,0,1-.27.126ZM115-55.5h2.973a.347.347,0,0,1,.261.116.288.288,0,0,1,.065.259l-.93,3.758,4-5.053H118.4a.346.346,0,0,1-.261-.115.288.288,0,0,1-.065-.259l.93-3.758Zm13.372,2.454H122.7a.321.321,0,0,1-.334-.307.321.321,0,0,1,.334-.307h5.678a.321.321,0,0,1,.334.307.321.321,0,0,1-.334.307Zm0,1.84H121.36a.321.321,0,0,1-.334-.307.321.321,0,0,1,.334-.307h7.014a.321.321,0,0,1,.334.307.321.321,0,0,1-.334.307Zm0,1.84h-9.352a.321.321,0,0,1-.334-.307.321.321,0,0,1,.334-.307h9.352a.321.321,0,0,1,.334.307.321.321,0,0,1-.334.307Zm0,0" transform="translate(-188.168 -105.913)" fill="#06bbdf" stroke="#06bbdf" stroke-width="0.5"/>
    </g>
    <g id="矩形_6887" data-name="矩形 6887" transform="translate(1374 91)" fill="none" stroke="#707070" stroke-width="1" opacity="0">
      <rect width="19" height="19" stroke="none"/>
      <rect x="0.5" y="0.5" width="18" height="18" fill="none"/>
    </g>
  </g>
</svg>
