<svg xmlns="http://www.w3.org/2000/svg" width="21" height="21" viewBox="0 0 21 21">
  <g id="组_3855" data-name="组 3855" transform="translate(-6322 571)">
    <g id="组_1774" data-name="组 1774" transform="translate(6324 -571)">
      <g id="组_3458" data-name="组 3458" transform="translate(0 0)">
        <path id="路径_906" data-name="路径 906" d="M347.49,423.639a6.454,6.454,0,0,0-6.435-6.419,6.361,6.361,0,0,0-6.325,6.419c0,3.511,3.435,7.955,6.38,11.576C344,431.539,347.49,427.2,347.49,423.639Zm-10.634,0a4.2,4.2,0,1,1,8.4,0,4.146,4.146,0,0,1-4.2,4.225A4.214,4.214,0,0,1,336.856,423.639Z" transform="translate(-332.776 -417.22)" fill="#06bbdf"/>
        <path id="路径_907" data-name="路径 907" d="M344.757,424.822a2.52,2.52,0,0,0-1.781,4.311,2.627,2.627,0,0,0,1.781.747,2.523,2.523,0,0,0,1.782-.747,2.629,2.629,0,0,0,.747-1.782,2.521,2.521,0,0,0-.747-1.781A2.629,2.629,0,0,0,344.757,424.822Z" transform="translate(-336.472 -420.841)" fill="#06bbdf"/>
        <path id="路径_908" data-name="路径 908" d="M344,443.231a.787.787,0,0,0-.994.574.828.828,0,0,0,.552,1.035c1.822.517,2.816,1.322,2.816,1.839,0,.92-2.65,2.3-6.791,2.3s-6.792-1.379-6.792-2.3c0-.517.828-1.264,2.65-1.781a.827.827,0,0,0,.552-1.035.786.786,0,0,0-.993-.574c-2.429.747-3.81,1.954-3.81,3.391,0,2.587,4.2,3.966,8.337,3.966s8.337-1.379,8.5-3.966C348.03,445.185,346.539,443.921,344,443.231Z" transform="translate(-331.189 -429.719)" fill="#06bbdf"/>
      </g>
    </g>
    <g id="矩形_6754" data-name="矩形 6754" transform="translate(6322 -571)" fill="none" stroke="#707070" stroke-width="1" opacity="0">
      <rect width="21" height="21" stroke="none"/>
      <rect x="0.5" y="0.5" width="20" height="20" fill="none"/>
    </g>
  </g>
</svg>
