<svg xmlns="http://www.w3.org/2000/svg" width="43.999" height="42.99" viewBox="0 0 43.999 42.99">
  <g id="组_60" data-name="组 60" transform="translate(-53.18 -93.63)">
    <g id="组_58" data-name="组 58">
      <g id="组_56" data-name="组 56">
        <rect id="矩形_9" data-name="矩形 9" width="4" height="14.5" transform="translate(73.18 117.03)" fill="#c2c6dc"/>
      </g>
      <g id="组_57" data-name="组 57">
        <path id="路径_35" data-name="路径 35" d="M81.27,131.47H69.09l-2.18,5.15H83.45Z" fill="#c2c6dc"/>
      </g>
    </g>
    <g id="路径_8357_3_">
      <path id="路径_36" data-name="路径 36" d="M82.22,103.75h7.39a.52.52,0,0,0,.58-.46.565.565,0,0,0,0-.13l-1.01-5.81a.794.794,0,0,0-.79-.6H81.6a.539.539,0,0,0-.58.5v.1l.4,5.81A.789.789,0,0,0,82.22,103.75Zm-3.19,2.37H71.2a.755.755,0,0,0-.77.68l-.34,7.07a.694.694,0,0,0,.69.7h8.65a.679.679,0,0,0,.7-.65v-.05l-.34-7.07a.731.731,0,0,0-.76-.68Zm10.81.06H82.35a.629.629,0,0,0-.67.59v.11l.58,6.92a.855.855,0,0,0,.88.7h8.03a.6.6,0,0,0,.65-.54.86.86,0,0,0-.01-.16l-1.09-6.92a.9.9,0,0,0-.88-.7Zm-18.48-2.52h7.61a.671.671,0,0,0,.7-.64v-.04l-.32-5.59a.745.745,0,0,0-.79-.64H71.78a.735.735,0,0,0-.77.64l-.34,5.59a.679.679,0,0,0,.67.68Zm-2.62-6.92H61.97a.817.817,0,0,0-.81.6l-.98,5.81a.529.529,0,0,0,.44.6.33.33,0,0,0,.14,0h7.37a.766.766,0,0,0,.79-.6l.43-5.81a.561.561,0,0,0-.52-.6Zm-.73,9.44H60.52a.9.9,0,0,0-.88.7l-1.09,6.92a.593.593,0,0,0,.48.69.861.861,0,0,0,.16.01h8.03a.872.872,0,0,0,.88-.7l.55-6.92a.62.62,0,0,0-.52-.7Z" fill="#c2c6dc"/>
    </g>
    <g id="组_59" data-name="组 59">
      <path id="路径_37" data-name="路径 37" d="M95.05,117.69H55.31a2.107,2.107,0,0,1-1.7-.8,2.2,2.2,0,0,1-.34-1.93l5.12-19.12a3.071,3.071,0,0,1,2.21-2.13,2.271,2.271,0,0,1,.59-.08H89.14a2.391,2.391,0,0,1,.66.09,3.073,3.073,0,0,1,2.17,2.12l5.12,19.12a2.21,2.21,0,0,1-.34,1.93A2.136,2.136,0,0,1,95.05,117.69ZM61.22,95.62l-.15.02a1.073,1.073,0,0,0-.75.71L55.2,115.47a.409.409,0,0,0-.01.19.29.29,0,0,0,.12.02H95.05a.354.354,0,0,0,.12-.02c.01-.01.02-.07-.01-.19L90.04,96.35a1.113,1.113,0,0,0-.75-.71l-.12-.02Z" fill="#c2c6dc"/>
    </g>
  </g>
</svg>
