<svg xmlns="http://www.w3.org/2000/svg" width="37.224" height="42.396" viewBox="0 0 37.224 42.396">
  <path id="综合能源" d="M90.121,1.061c2.882,0,4.888,4.784,5.907,10.982,5.732-2.1,10.718-2.7,12.13-.281a3.048,3.048,0,0,1,.216,2.4c-.575,2.153-2.981,4.99-6.545,7.9,3.561,2.907,5.967,5.741,6.545,7.893a3.05,3.05,0,0,1-.216,2.4c-.637,1.1-2.011,1.575-3.85,1.575a25.866,25.866,0,0,1-8.281-1.85C95.008,38.275,93,43.057,90.12,43.057s-4.887-4.78-5.9-10.977a25.858,25.858,0,0,1-8.279,1.85c-1.839,0-3.213-.476-3.85-1.569a3.071,3.071,0,0,1-.217-2.4c.576-2.155,2.984-4.993,6.551-7.9-3.566-2.909-5.974-5.745-6.551-7.9a3.05,3.05,0,0,1,.217-2.4c1.412-2.417,6.4-1.823,12.13.278,1.019-6.2,3.021-10.974,5.9-10.974Zm0,28.448-.213.107q-2.035,1.006-4.139,1.859c.992,6.3,2.875,9.929,4.349,9.929s3.359-3.626,4.35-9.93q-2.21-.9-4.346-1.964Zm10.371-6.4-.252.19q-1.726,1.295-3.541,2.464c-.088,1.587-.232,3.155-.431,4.662,5.785,2.169,9.741,2.329,10.465,1.1a1.508,1.508,0,0,0,.044-1.138c-.445-1.666-2.633-4.336-6.284-7.274Zm-20.739,0-.261.212c-3.5,2.858-5.593,5.442-6.03,7.066a1.51,1.51,0,0,0,.044,1.138c.72,1.234,4.676,1.073,10.464-1.1q-.3-2.325-.431-4.668Q81.6,24.5,79.757,23.106Zm5.494,3.718.006.077q.1,1.456.282,2.906,1.4-.582,2.769-1.237-1.55-.835-3.057-1.746Zm9.738.01-.08.049q-1.463.88-2.967,1.688,1.364.654,2.763,1.235.174-1.412.286-2.972ZM90.122,16.448l-.166.085q-2.461,1.284-4.815,2.76-.106,2.763,0,5.528,2.431,1.524,4.981,2.845,2.545-1.319,4.977-2.842.108-2.766,0-5.535-2.429-1.522-4.977-2.841Zm-.057.81.141,3.706h3.586l-3.727,6.473-.094-4.3H86.149Zm-6.6,3.128-.122.082q-1.136.768-2.234,1.59,1.156.865,2.355,1.671-.04-1.671,0-3.343Zm13.322,0v.079q.039,1.632,0,3.265,1.2-.807,2.354-1.673-1.156-.865-2.354-1.67ZM73.51,12.592a1.479,1.479,0,0,0-.044,1.137c.445,1.664,2.633,4.336,6.288,7.279q1.842-1.4,3.79-2.653c.088-1.589.232-3.158.431-4.667-5.788-2.169-9.744-2.33-10.464-1.1Zm22.781,1.089-.02.008q.3,2.323.432,4.664Q98.647,19.6,100.492,21c3.651-2.941,5.84-5.612,6.288-7.275a1.51,1.51,0,0,0-.044-1.138c-.719-1.233-4.669-1.073-10.445,1.089Zm-10.753.625-.027.226q-.162,1.374-.259,2.756,1.506-.91,3.057-1.743-1.369-.656-2.771-1.237Zm9.166,0-.112.048q-1.277.532-2.649,1.187,1.544.832,3.046,1.74-.1-1.491-.285-2.974ZM90.121,2.71c-1.473,0-3.356,3.624-4.349,9.927q2.216.9,4.356,1.967,2.133-1.064,4.343-1.961c-.99-6.308-2.874-9.934-4.35-9.934Z" transform="translate(-71.512 -0.861)" fill="#c2c6dc" stroke="#c2c6dc" stroke-width="0.4"/>
</svg>
