<svg xmlns="http://www.w3.org/2000/svg" width="35.01" height="41.99" viewBox="0 0 35.01 41.99">
  <path id="路径_938_1_" d="M240.73,116.69a3.156,3.156,0,1,0-2.268-.906,3.165,3.165,0,0,0,2.268.906ZM239.37,119l-1.98,17.59H244L242.01,119Zm14.84.58q-4-2.9-8.27-5.42a.435.435,0,0,0-.4-.02.419.419,0,0,0-.24.31,4.463,4.463,0,0,1-1.65,2.76.428.428,0,0,0,.06.71c5.51,3,12.03,6.2,13.89,6.25a.789.789,0,0,0,.68-.31.62.62,0,0,0,.09-.32c-.18-1.02-1.79-2.14-4.16-3.96Zm-15.05-10.07a.431.431,0,0,1-.55-.26.392.392,0,0,1-.03-.14,71.182,71.182,0,0,1,1.14-12.95c.27-.79.27-1.39,1.07-1.56.8.18.79.77,1.07,1.56a26.441,26.441,0,0,1,.56,3.3c.32,2.69.54,6.22.59,9.64a.437.437,0,0,1-.19.36.431.431,0,0,1-.24.08.4.4,0,0,1-.15-.03A4.4,4.4,0,0,0,239.16,109.51Zm-1.17,8a.471.471,0,0,1-.22.34c-5.47,2.98-11.74,5.89-13.61,5.93a.76.76,0,0,1-.71-.32.62.62,0,0,1-.09-.32c.17-1.03,1.73-2.09,4.05-3.83,2.3-1.65,5.33-3.59,8.22-5.29a.422.422,0,0,1,.58.14.442.442,0,0,1,.06.16,4.506,4.506,0,0,0,1.57,2.81.476.476,0,0,1,.15.38Z" transform="translate(-223.36 -94.6)" fill="#c2c6dc"/>
</svg>
