<svg xmlns="http://www.w3.org/2000/svg" width="20.926" height="20.926" viewBox="0 0 20.926 20.926">
  <path id="路径_8241" data-name="路径 8241" d="M-90.537,5.292A4.829,4.829,0,0,0-85.708.463a4.829,4.829,0,0,0-4.829-4.829A4.829,4.829,0,0,0-95.366.463a4.829,4.829,0,0,0,4.829,4.829Zm0,1.61A6.439,6.439,0,0,1-96.976.463a6.439,6.439,0,0,1,6.439-6.439A6.439,6.439,0,0,1-84.1.463,6.439,6.439,0,0,1-90.537,6.9Zm-.8-16.1a.8.8,0,0,1,.8-.8.8.8,0,0,1,.8.8v1.61a.805.805,0,0,1-.4.7.8.8,0,0,1-.8,0,.805.805,0,0,1-.4-.7Zm0,17.707a.8.8,0,0,1,.8-.8.8.8,0,0,1,.8.8v1.61a.8.8,0,0,1-.4.7.8.8,0,0,1-.8,0,.8.8,0,0,1-.4-.7Zm7.065-15.447a.805.805,0,0,1,.783-.219.805.805,0,0,1,.575.575.8.8,0,0,1-.22.783l-1.138,1.138a.8.8,0,0,1-1.128-.01.8.8,0,0,1-.01-1.128ZM-96.8,5.585a.8.8,0,0,1,.783-.219.8.8,0,0,1,.575.575.8.8,0,0,1-.22.783L-96.8,7.861a.8.8,0,0,1-1.128-.01.8.8,0,0,1-.01-1.128Zm0-12.52a.8.8,0,0,0-.782-.217.805.805,0,0,0-.574.574.8.8,0,0,0,.217.782L-96.8-4.659a.8.8,0,0,0,1.127-.011A.8.8,0,0,0-95.659-5.8Zm12.52,12.52a.8.8,0,0,0-.782-.217.8.8,0,0,0-.574.574.8.8,0,0,0,.217.782l1.138,1.138A.8.8,0,0,0-83.15,7.85a.8.8,0,0,0,.011-1.127Zm3.4-5.927a.8.8,0,0,1,.8.8.8.8,0,0,1-.8.8h-1.61a.805.805,0,0,1-.7-.4.8.8,0,0,1,0-.8.805.805,0,0,1,.7-.4Zm-17.707,0a.8.8,0,0,1,.8.8.8.8,0,0,1-.8.8h-1.61a.8.8,0,0,1-.7-.4.8.8,0,0,1,0-.8.8.8,0,0,1,.7-.4Zm0,0" transform="translate(101 10)" fill="#06bbdf"/>
</svg>
