<svg xmlns="http://www.w3.org/2000/svg" width="55" height="55" viewBox="0 0 55 55">
  <g id="组_3896" data-name="组 3896" transform="translate(-5310 2819)">
    <g id="组_3867" data-name="组 3867" transform="translate(5313 -2816)">
      <path id="路径_883" data-name="路径 883" d="M113.643,104.313,93.863,84.532A5.869,5.869,0,0,0,89.634,82.9a5.445,5.445,0,0,0-4.093,1.773L65.9,104.176a3.785,3.785,0,0,0-.818,4.229,3.908,3.908,0,0,0,3.547,2.319h2.456v14.324a5.823,5.823,0,0,0,5.866,5.866h25.51a6.121,6.121,0,0,0,6-5.866V110.724h2.456a3.528,3.528,0,0,0,3.41-2.183,3.745,3.745,0,0,0-.682-4.229Zm-1.774,3.274c0,.136-.409.409-.955.409H107.1a1.289,1.289,0,0,0-1.364,1.364v15.552a3.415,3.415,0,0,1-3.274,3.274H77.083a3.269,3.269,0,0,1-3.138-3.138V109.36A1.289,1.289,0,0,0,72.581,108h-3.82a1.391,1.391,0,0,1-1.091-.682,1.309,1.309,0,0,1,.273-1.228L87.451,86.578a2.666,2.666,0,0,1,2.046-.955,3.209,3.209,0,0,1,2.319.819L111.6,106.223a1.2,1.2,0,0,1,.273,1.364Z" transform="translate(-64.745 -82.895)" fill="#7e72f2"/>
      <path id="路径_884" data-name="路径 884" d="M414.547,407.487h-4.638l2.456-6.548a.6.6,0,0,0-.136-.682.75.75,0,0,0-.682-.409h-3.274c-.273,0-.682.273-.682.546l-3.82,9.959a.6.6,0,0,0,.136.682.75.75,0,0,0,.682.409h3.956L405,420.856c0,.136,0,.273.136.273h.409l9.686-12.278a.643.643,0,0,0,.136-.819.986.986,0,0,0-.818-.546Z" transform="translate(-384.747 -382.114)" fill="none" stroke="#7e72f2" stroke-width="2"/>
    </g>
    <g id="矩形_6772" data-name="矩形 6772" transform="translate(5310 -2819)" fill="none" stroke="#707070" stroke-width="1" opacity="0">
      <rect width="55" height="55" stroke="none"/>
      <rect x="0.5" y="0.5" width="54" height="54" fill="none"/>
    </g>
  </g>
</svg>
