<svg xmlns="http://www.w3.org/2000/svg" width="55" height="55" viewBox="0 0 55 55">
  <g id="组_3897" data-name="组 3897" transform="translate(-5393 2843)">
    <g id="矩形_6774" data-name="矩形 6774" transform="translate(5393 -2843)" fill="none" stroke="#707070" stroke-width="1" opacity="0">
      <rect width="55" height="55" stroke="none"/>
      <rect x="0.5" y="0.5" width="54" height="54" fill="none"/>
    </g>
    <g id="组_3894" data-name="组 3894" transform="translate(5401 -2839)">
      <g id="组_2573" data-name="组 2573">
        <g id="组_2572" data-name="组 2572" transform="translate(0 0)">
          <g id="组_2597" data-name="组 2597">
            <path id="路径_938" data-name="路径 938" d="M637.748,155.648a3.6,3.6,0,1,0-3.649-3.6,3.627,3.627,0,0,0,3.649,3.6Zm-1.546,2.626-2.254,19.994h7.52l-2.262-19.992h-3Zm16.877.65q-4.555-3.3-9.4-6.159a.485.485,0,0,0-.459-.02.473.473,0,0,0-.277.358,5.051,5.051,0,0,1-1.88,3.144.487.487,0,0,0-.185.418.508.508,0,0,0,.249.39c6.267,3.406,13.672,7.049,15.792,7.1a.894.894,0,0,0,.772-.352.749.749,0,0,0,.1-.368c-.189-1.168-2.021-2.443-4.709-4.512Zm-17.115-11.445a.493.493,0,0,1-.661-.464c.093-5.851.591-11.937,1.3-14.718.312-.9.308-1.58,1.216-1.777.915.2.9.879,1.217,1.777a28.958,28.958,0,0,1,.631,3.754c.364,3.054.613,7.07.67,10.962a.5.5,0,0,1-.211.406.455.455,0,0,1-.279.092.474.474,0,0,1-.175-.032,5.057,5.057,0,0,0-3.708,0Zm-1.329,9.1a.5.5,0,0,1-.255.384c-6.223,3.382-13.343,6.693-15.472,6.74a.877.877,0,0,1-.806-.358.668.668,0,0,1-.1-.368c.189-1.174,1.97-2.372,4.608-4.351,2.62-1.876,6.054-4.084,9.341-6.014a.483.483,0,0,1,.73.346,5.092,5.092,0,0,0,1.785,3.2.489.489,0,0,1,.173.422Zm0,0" transform="translate(-617.999 -130.521)" fill="none" stroke="#c2c6dc" stroke-width="2"/>
          </g>
        </g>
      </g>
    </g>
  </g>
</svg>
