<svg id="组_3600" data-name="组 3600" xmlns="http://www.w3.org/2000/svg" xmlns:xlink="http://www.w3.org/1999/xlink" width="37.021" height="37.021" viewBox="0 0 37.021 37.021">
  <defs>
    <linearGradient id="linear-gradient" x1="0.5" x2="0.5" y2="1" gradientUnits="objectBoundingBox">
      <stop offset="0" stop-color="#06bbdf"/>
      <stop offset="1" stop-color="#7468ee" stop-opacity="0.302"/>
    </linearGradient>
  </defs>
  <g id="组_3597" data-name="组 3597" transform="translate(0 0)">
    <path id="路径_8267" data-name="路径 8267" d="M677.506,255.212a11.4,11.4,0,0,0-3.414,15.083h-17.33a1.323,1.323,0,0,1-1.281-1.361v-1.706a1.3,1.3,0,0,1,.063-.395A6.214,6.214,0,0,1,657.9,263.8a13.257,13.257,0,0,1,3.453-1.734,25.6,25.6,0,0,1,5.086-1.132c.041-.005-.034-1.924-.01-1.961a1.923,1.923,0,0,0-.413-1.17.127.127,0,0,0-.031-.034,11.425,11.425,0,0,1-3.022-4.246.152.152,0,0,0-.116-.093,3.427,3.427,0,0,1-2.394-2.837c-.382-1.683.051-3.267,1.033-3.9a.163.163,0,0,0,.072-.14c-.051-3.22.723-5.774,2.3-7.593a9.6,9.6,0,0,1,13.621,0c1.582,1.82,2.356,4.374,2.3,7.593a.164.164,0,0,0,.072.14c.982.633,1.415,2.216,1.033,3.9a3.429,3.429,0,0,1-2.395,2.837.152.152,0,0,0-.116.093,13.611,13.611,0,0,1-.872,1.692Zm0,0" transform="translate(-655.482 -236.122)" fill="url(#linear-gradient)"/>
    <path id="路径_8268" data-name="路径 8268" d="M1016.822,606a8.543,8.543,0,1,1,8.543-8.543,8.544,8.544,0,0,1-8.543,8.543Zm.008-11.708h-2.777a1.187,1.187,0,1,0,0,2.373h5.537a1.187,1.187,0,0,0,.818-2.046l-1.661-1.661a1.186,1.186,0,0,0-1.918,1.334Zm-.016,6.616h2.777a1.187,1.187,0,0,0,0-2.373h-5.537a1.187,1.187,0,0,0-.818,2.046l1.661,1.661a1.186,1.186,0,0,0,1.918-1.334Zm0,0" transform="translate(-988.344 -568.984)" fill="url(#linear-gradient)"/>
  </g>
</svg>
