<svg xmlns="http://www.w3.org/2000/svg" xmlns:xlink="http://www.w3.org/1999/xlink" width="37.417" height="37.497" viewBox="0 0 37.417 37.497">
  <defs>
    <linearGradient id="linear-gradient" x1="0.5" x2="0.5" y2="1" gradientUnits="objectBoundingBox">
      <stop offset="0" stop-color="#06bbdf"/>
      <stop offset="1" stop-color="#7468ee" stop-opacity="0.302"/>
    </linearGradient>
  </defs>
  <g id="组_3598" data-name="组 3598" transform="translate(-2747.482 -3471.288)">
    <path id="路径_8270" data-name="路径 8270" d="M1027.787,548.815a8.722,8.722,0,0,0-1.79-2.666,9.236,9.236,0,0,0-2.666-1.79,7.9,7.9,0,0,0-3.223-.637,9.15,9.15,0,0,0-3.263.637,8.067,8.067,0,0,0-2.666,1.79,8.724,8.724,0,0,0-1.79,2.666,7.9,7.9,0,0,0-.636,3.223,8.246,8.246,0,0,0,2.427,5.888,9.232,9.232,0,0,0,2.666,1.79,8.005,8.005,0,0,0,6.485,0,8.728,8.728,0,0,0,2.666-1.79,8.067,8.067,0,0,0,1.79-2.666,8.211,8.211,0,0,0,.677-3.223,8.351,8.351,0,0,0-.677-3.223Zm-2.427,1.353-5.888,5.888a1.42,1.42,0,0,1-1.949,0l-2.626-2.626a1.42,1.42,0,0,1,0-1.95l.159-.159a1.421,1.421,0,0,1,1.95,0l1.472,1.472,4.814-4.814a1.42,1.42,0,0,1,1.949,0l.159.159a1.476,1.476,0,0,1-.04,2.029Zm0,0" transform="translate(1756.435 2948.383)" fill="url(#linear-gradient)"/>
    <path id="路径_8273" data-name="路径 8273" d="M678.043,255.677a11.675,11.675,0,0,0-3.5,15.451H656.794a1.355,1.355,0,0,1-1.312-1.394v-1.748a1.332,1.332,0,0,1,.064-.4,6.364,6.364,0,0,1,2.41-3.111,13.581,13.581,0,0,1,3.537-1.777,26.228,26.228,0,0,1,5.21-1.159c.042-.005-.035-1.971-.01-2.009a1.971,1.971,0,0,0-.423-1.2.132.132,0,0,0-.031-.034,11.7,11.7,0,0,1-3.1-4.35.156.156,0,0,0-.119-.1,3.511,3.511,0,0,1-2.453-2.906c-.391-1.724.052-3.347,1.058-4a.167.167,0,0,0,.073-.144c-.053-3.3.74-5.915,2.361-7.778a9.833,9.833,0,0,1,13.953,0c1.62,1.864,2.413,4.48,2.36,7.778a.168.168,0,0,0,.074.144c1.006.649,1.449,2.27,1.058,4a3.512,3.512,0,0,1-2.453,2.906.156.156,0,0,0-.119.1,13.942,13.942,0,0,1-.894,1.733Zm0,0" transform="translate(2092 3235.166)" fill="url(#linear-gradient)"/>
  </g>
</svg>
