<svg xmlns="http://www.w3.org/2000/svg" xmlns:xlink="http://www.w3.org/1999/xlink" width="36.674" height="36.785" viewBox="0 0 36.674 36.785">
  <defs>
    <linearGradient id="linear-gradient" x1="0.5" x2="0.5" y2="1" gradientUnits="objectBoundingBox">
      <stop offset="0" stop-color="#06bbdf"/>
      <stop offset="1" stop-color="#7468ee" stop-opacity="0.302"/>
    </linearGradient>
    <clipPath id="clip-path">
      <rect id="矩形_6731" data-name="矩形 6731" width="16.287" height="16.307" stroke="rgba(0,0,0,0)" stroke-width="1" fill="url(#linear-gradient)"/>
    </clipPath>
  </defs>
  <g id="组_3606" data-name="组 3606" transform="translate(0.5 0.5)">
    <g id="组_3605" data-name="组 3605" transform="translate(19.887 19.978)">
      <g id="组_3604" data-name="组 3604" transform="translate(0 0)">
        <g id="组_3603" data-name="组 3603" transform="translate(0 0)" clip-path="url(#clip-path)">
          <path id="路径_8274" data-name="路径 8274" d="M417.025,146.84a8.145,8.145,0,1,0,8.145,8.145,8.145,8.145,0,0,0-8.145-8.145Zm2.34,12.022-1.61-3.077,1.682-1.539.394,4.115Zm1.825-6.977c-1.4,1.4-4.9,4.974-4.9,4.974l-.143,2-.179.394-1.145-2.147-2.111-1.181.394-.143,2.111-.143,1.252-1.181-3.4-1.968.572-.537,4.544.68s.93-.966,1.646-1.682a1.093,1.093,0,0,1,1-.215l.322.322s.322.537.036.823Zm0,0" transform="translate(-408.883 -146.843)" stroke="rgba(0,0,0,0)" stroke-width="1" fill="url(#linear-gradient)"/>
        </g>
      </g>
    </g>
    <path id="路径_8267" data-name="路径 8267" d="M677.506,255.212a11.4,11.4,0,0,0-3.414,15.083h-17.33a1.323,1.323,0,0,1-1.281-1.361v-1.706a1.3,1.3,0,0,1,.063-.395A6.214,6.214,0,0,1,657.9,263.8a13.257,13.257,0,0,1,3.453-1.734,25.6,25.6,0,0,1,5.086-1.132c.041-.005-.034-1.924-.01-1.961a1.923,1.923,0,0,0-.413-1.17.127.127,0,0,0-.031-.034,11.425,11.425,0,0,1-3.022-4.246.152.152,0,0,0-.116-.093,3.427,3.427,0,0,1-2.394-2.837c-.382-1.683.051-3.267,1.033-3.9a.163.163,0,0,0,.072-.14c-.051-3.22.723-5.774,2.3-7.593a9.6,9.6,0,0,1,13.621,0c1.582,1.82,2.356,4.374,2.3,7.593a.164.164,0,0,0,.072.14c.982.633,1.415,2.216,1.033,3.9a3.429,3.429,0,0,1-2.395,2.837.152.152,0,0,0-.116.093,13.611,13.611,0,0,1-.872,1.692Zm0,0" transform="translate(-655.482 -236.122)" stroke="rgba(0,0,0,0)" stroke-width="1" fill="url(#linear-gradient)"/>
  </g>
</svg>
