<svg xmlns="http://www.w3.org/2000/svg" width="19.25" height="19.25" viewBox="0 0 19.25 19.25">
  <g id="组_4485" data-name="组 4485" transform="translate(-1239.75 -108.75)">
    <g id="组_4481" data-name="组 4481" transform="translate(-2.796 -5)">
      <path id="路径_8351" data-name="路径 8351" d="M-276.731-130.461A9.28,9.28,0,0,1-286-139.731,9.28,9.28,0,0,1-276.731-149a9.28,9.28,0,0,1,9.269,9.269.32.32,0,0,1-.32.32.32.32,0,0,1-.32-.32,8.64,8.64,0,0,0-8.63-8.63,8.64,8.64,0,0,0-8.63,8.63,8.64,8.64,0,0,0,8.63,8.63.32.32,0,0,1,.32.32.32.32,0,0,1-.32.32Zm0,0" transform="translate(1528.796 263)" fill="#06bbdf" stroke="#06bbdf" stroke-width="0.5"/>
      <path id="路径_8352" data-name="路径 8352" d="M-85.774-25.358a.32.32,0,0,1-.222-.09,4.478,4.478,0,0,0-.349-.3.32.32,0,0,1-.121-.226.32.32,0,0,1,.084-.242,2.614,2.614,0,0,0,.628-1.21,7.824,7.824,0,0,0,.116-1.534V-30.84a.32.32,0,0,1,.32-.32H-81.7a.32.32,0,0,1,.32.32v4.23a1,1,0,0,1-1.085,1.122q-.323,0-.831-.011a.32.32,0,0,1-.31-.276q-.032-.219-.078-.435a.319.319,0,0,1,.072-.274.326.326,0,0,1,.262-.109c.321.021.579.032.766.032a.222.222,0,0,0,.107-.017.228.228,0,0,0,.013-.092v-.581h-2.224a3.942,3.942,0,0,1-.843,1.776.318.318,0,0,1-.229.116Zm1.2-2.928h2.113v-.4h-2.1q0,.2-.015.4Zm.019-1.437h2.094v-.391h-2.094Zm0,0" transform="translate(1341.475 156.776)" fill="#06bbdf"/>
      <path id="路径_8352-2" data-name="路径 8352" d="M-91.433-27.083a.319.319,0,0,1-.25-.12.319.319,0,0,1-.062-.27l1.146-5.043h-3.072a.32.32,0,0,1-.285-.175.32.32,0,0,1,.026-.333l5.114-7.032a.32.32,0,0,1,.391-.1.319.319,0,0,1,.18.362l-1.146,5.043h3.072a.32.32,0,0,1,.285.175.319.319,0,0,1-.026.333l-5.114,7.032a.32.32,0,0,1-.259.132Zm-1.61-6.073H-90.2a.319.319,0,0,1,.25.12.32.32,0,0,1,.062.27l-.89,3.917,3.83-5.267h-2.844a.32.32,0,0,1-.25-.12.32.32,0,0,1-.062-.27l.89-3.917Z" transform="translate(1341.581 156.904)" fill="#06bbdf" stroke="#06bbdf" stroke-width="0.5"/>
    </g>
    <g id="矩形_6887" data-name="矩形 6887" transform="translate(1240 109)" fill="none" stroke="#707070" stroke-width="1" opacity="0">
      <rect width="19" height="19" stroke="none"/>
      <rect x="0.5" y="0.5" width="18" height="18" fill="none"/>
    </g>
  </g>
</svg>
