<svg xmlns="http://www.w3.org/2000/svg" width="20.511" height="20.25" viewBox="0 0 20.511 20.25">
  <g id="组_3850" data-name="组 3850" transform="translate(-6113.711 607.25)">
    <g id="组_3397" data-name="组 3397" transform="translate(6114 -607)">
      <path id="路径_883" data-name="路径 883" d="M84.258,91.442l-7.893-7.893a2.342,2.342,0,0,0-1.688-.653,2.173,2.173,0,0,0-1.633.708L65.2,91.387a1.51,1.51,0,0,0-.327,1.688A1.56,1.56,0,0,0,66.293,94h.98v5.716a2.323,2.323,0,0,0,2.341,2.341h10.18a2.442,2.442,0,0,0,2.4-2.341V94h.98a1.408,1.408,0,0,0,1.361-.871,1.5,1.5,0,0,0-.272-1.688Zm-.708,1.306c0,.054-.163.163-.381.163H81.645a.514.514,0,0,0-.544.544v6.206a1.363,1.363,0,0,1-1.307,1.306H69.669a1.3,1.3,0,0,1-1.252-1.252v-6.26a.514.514,0,0,0-.544-.544H66.348a.555.555,0,0,1-.435-.272.522.522,0,0,1,.109-.49l7.785-7.785a1.064,1.064,0,0,1,.817-.381,1.28,1.28,0,0,1,.925.327L83.441,92.2a.479.479,0,0,1,.109.544Z" transform="translate(-64.745 -82.895)" fill="#06bbdf" stroke="#06bbdf" stroke-width="0.5"/>
      <path id="路径_884" data-name="路径 884" d="M408.036,402.9h-1.851l.98-2.613a.239.239,0,0,0-.054-.272.3.3,0,0,0-.272-.163h-1.307c-.109,0-.272.109-.272.218l-1.524,3.974a.239.239,0,0,0,.054.272.3.3,0,0,0,.272.163h1.579l-1.415,3.756c0,.054,0,.109.054.109h.163l3.865-4.9a.256.256,0,0,0,.054-.327.394.394,0,0,0-.327-.218Z" transform="translate(-396.145 -392.771)" fill="#06bbdf" stroke="#06bbdf" stroke-width="0.5"/>
    </g>
    <g id="矩形_6748" data-name="矩形 6748" transform="translate(6114 -607)" fill="none" stroke="#707070" stroke-width="1" opacity="0">
      <rect width="20" height="20" stroke="none"/>
      <rect x="0.5" y="0.5" width="19" height="19" fill="none"/>
    </g>
  </g>
</svg>
